<svg width="489.880859375px" height="120.8px" xmlns="http://www.w3.org/2000/svg" viewBox="5.0595703125 14.600000000000001 489.880859375 120.8" style="background: none;" preserveAspectRatio="xMidYMid"><defs><filter id="editing-raise" x="-100%" y="-100%" width="300%" height="300%"><feFlood flood-color="#fdfdfe" result="flood-surface"></feFlood><feFlood flood-color="none" result="flood-extrude"></feFlood><feMorphology operator="erode" in="SourceAlpha" radius="1" result="erode"></feMorphology><feConvolveMatrix in="erode" result="shadow" order="11,8" divisor="1" kernelMatrix="0 0 0 1 1 1 1 1 0 0 0 0 0 1 0 0 0 0 0 1 0 0 0 0 1 0 0 0 0 0 1 0 0 0 0 1 0 0 0 0 0 1 0 0 0 0 1 0 0 0 0 0 1 0 0 0 0 0 1 0 0 0 1 0 0 0 0 0 0 1 1 0 1 1 0 0 0 0 0 0 0 0 1 0 0 0 0 0"></feConvolveMatrix><feOffset dx="0" dy="4" in="shadow" result="offset"></feOffset><feGaussianBlur in="offset" stdDeviation="0.2" result="blur"></feGaussianBlur><feComposite operator="in" in="flood-extrude" in2="blur" result="extrude"></feComposite><feMorphology operator="erode" in="SourceAlpha" radius="1" result="erode2"></feMorphology><feConvolveMatrix in="erode2" result="out" order="4,4" divisor="1" kernelMatrix="0 1 1 0 1 0 0 1 1 0 0 1 0 1 1 0 "></feConvolveMatrix><feComposite operator="in" in="flood-surface" in2="out" result="text"></feComposite><feMerge><feMergeNode in="extrude"></feMergeNode><feMergeNode in="text"></feMergeNode></feMerge></filter></defs><g filter="url(#editing-raise)"><g transform="translate(78.5362114906311, 97.46500015258789)"><path d="M2.69-39.68L2.69-39.68L2.69-39.68Q3.58-41.47 5.54-42.46L5.54-42.46L5.54-42.46Q7.49-43.46 10.18-43.46L10.18-43.46L10.18-43.46Q14.40-43.46 16.93-40.42L16.93-40.42L16.93-40.42Q19.46-37.38 19.46-30.72L19.46-30.72L19.46-7.87L34.11-42.18L41.66-42.18L43.39-9.79L43.20-7.94L58.43-42.18L67.20-42.18L46.72 0L33.09 0L31.81-19.46L23.36 0L7.94 0L6.02-30.72L6.02-30.72Q5.82-34.18 4.90-36.45L4.90-36.45L4.90-36.45Q3.97-38.72 2.69-39.68ZM69.57-31.17L69.57-31.17L69.57-31.17Q67.39-32.83 67.39-36.38L67.39-36.38L67.39-36.38Q67.39-39.94 69.73-41.79L69.73-41.79L69.73-41.79Q72.06-43.65 76.10-43.65L76.10-43.65L76.10-43.65Q78.66-43.65 84.74-42.75L84.74-42.75L89.09-42.11L89.09-42.11Q91.26-41.86 93.54-41.86L93.54-41.86L93.54-41.86Q95.81-41.86 97.34-42.82L97.34-42.82L97.34-42.82Q99.65-40.77 99.65-37.82L99.65-37.82L99.65-37.82Q99.65-34.88 97.02-32.77L97.02-32.77L97.02-32.77Q94.34-30.53 90.88-30.53L90.88-30.53L90.88-30.53Q89.22-30.53 86.53-30.98L86.53-30.98L86.53-30.98Q83.39-21.12 83.39-14.27L83.39-14.27L83.39-14.27Q83.39-7.42 86.85-3.84L86.85-3.84L86.85-3.84Q85.25-0.96 82.88 0.16L82.88 0.16L82.88 0.16Q80.51 1.28 76.96 1.28L76.96 1.28L76.96 1.28Q73.41 1.28 71.20-0.67L71.20-0.67L71.20-0.67Q68.99-2.62 68.99-6.66L68.99-6.66L68.99-6.66Q68.99-11.33 71.55-19.01L71.55-19.01L71.55-19.01Q74.11-26.62 77.95-32.45L77.95-32.45L77.95-32.45Q76.10-32.64 74.18-32.64L74.18-32.64L74.18-32.64Q70.21-32.64 69.57-31.17ZM126.72-33.92L126.72-33.92L126.72-33.92Q121.54-33.92 117.76-35.65L117.76-35.65L115.71-25.28L128.06-25.28L128.06-25.28Q128.06-21.89 126.37-19.74L126.37-19.74L126.37-19.74Q124.67-17.60 121.60-17.60L121.60-17.60L121.60-17.60Q118.27-17.60 115.20-18.82L115.20-18.82L115.20-18.82Q114.56-19.07 114.50-19.14L114.50-19.14L110.85 0L96.90 0L105.02-42.24L133.57-42.24L133.57-42.24Q133.57-38.34 131.74-36.13L131.74-36.13L131.74-36.13Q129.92-33.92 126.72-33.92ZM126.53-3.78L126.53-3.78L126.53-3.78Q126.53-6.21 128.42-7.55L128.42-7.55L128.42-7.55Q130.30-8.90 132.99-8.90L132.99-8.90L132.99-8.90Q135.68-8.90 137.31-7.55L137.31-7.55L137.31-7.55Q138.94-6.21 138.94-3.78L138.94-3.78L138.94-3.78Q138.94-1.34 137.12-0.03L137.12-0.03L137.12-0.03Q135.30 1.28 132.61 1.28L132.61 1.28L132.61 1.28Q129.92 1.28 128.22-0.03L128.22-0.03L128.22-0.03Q126.53-1.34 126.53-3.78ZM169.86-29.57L169.86-29.57L169.86-29.57Q170.82-31.49 170.82-33.28L170.82-33.28L170.82-33.28Q170.82-35.07 170.62-36.06L170.62-36.06L170.62-36.06Q170.43-37.06 169.98-37.82L169.98-37.82L169.98-37.82Q169.02-39.49 167.10-39.49L167.10-39.49L167.10-39.49Q164.74-39.49 162.82-37.76L162.82-37.76L162.82-37.76Q160.77-35.97 160.77-33.15L160.77-33.15L160.77-33.15Q160.77-31.36 162.02-29.98L162.02-29.98L162.02-29.98Q163.26-28.61 165.18-27.33L165.18-27.33L165.18-27.33Q167.10-26.05 169.28-24.77L169.28-24.77L169.28-24.77Q171.46-23.49 173.38-21.95L173.38-21.95L173.38-21.95Q177.79-18.43 177.79-13.70L177.79-13.70L177.79-13.70Q177.79-10.50 176.10-7.78L176.10-7.78L176.10-7.78Q174.40-5.06 171.58-3.07L171.58-3.07L171.58-3.07Q165.44 1.28 157.31 1.28L157.31 1.28L157.31 1.28Q150.72 1.28 147.33-0.86L147.33-0.86L147.33-0.86Q143.94-3.01 143.94-6.27L143.94-6.27L143.94-6.27Q143.94-12.10 148.48-13.57L148.48-13.57L148.48-13.57Q149.76-14.02 151.71-14.02L151.71-14.02L151.71-14.02Q153.66-14.02 155.90-13.18L155.90-13.18L155.90-13.18Q154.88-10.56 154.88-8.19L154.88-8.19L154.88-8.19Q154.88-3.07 158.53-3.07L158.53-3.07L158.53-3.07Q160.90-3.07 162.85-4.80L162.85-4.80L162.85-4.80Q164.80-6.53 164.80-8.48L164.80-8.48L164.80-8.48Q164.80-10.43 163.55-11.84L163.55-11.84L163.55-11.84Q162.30-13.25 160.45-14.37L160.45-14.37L160.45-14.37Q158.59-15.49 156.45-16.58L156.45-16.58L156.45-16.58Q154.30-17.66 152.45-19.20L152.45-19.20L152.45-19.20Q148.10-22.72 148.10-28.35L148.10-28.35L148.10-28.35Q148.10-32 149.89-34.85L149.89-34.85L149.89-34.85Q151.68-37.70 154.56-39.62L154.56-39.62L154.56-39.62Q160.32-43.52 167.39-43.52L167.39-43.52L167.39-43.52Q174.46-43.52 177.89-41.41L177.89-41.41L177.89-41.41Q181.31-39.30 181.31-35.71L181.31-35.71L181.31-35.71Q181.31-32.58 178.88-30.59L178.88-30.59L178.88-30.59Q176.77-28.93 174.21-28.93L174.21-28.93L174.21-28.93Q171.65-28.93 169.86-29.57ZM187.78-31.17L187.78-31.17L187.78-31.17Q185.60-32.83 185.60-36.38L185.60-36.38L185.60-36.38Q185.60-39.94 187.94-41.79L187.94-41.79L187.94-41.79Q190.27-43.65 194.30-43.65L194.30-43.65L194.30-43.65Q196.86-43.65 202.94-42.75L202.94-42.75L207.30-42.11L207.30-42.11Q209.47-41.86 211.74-41.86L211.74-41.86L211.74-41.86Q214.02-41.86 215.55-42.82L215.55-42.82L215.55-42.82Q217.86-40.77 217.86-37.82L217.86-37.82L217.86-37.82Q217.86-34.88 215.23-32.77L215.23-32.77L215.23-32.77Q212.54-30.53 209.09-30.53L209.09-30.53L209.09-30.53Q207.42-30.53 204.74-30.98L204.74-30.98L204.74-30.98Q201.60-21.12 201.60-14.27L201.60-14.27L201.60-14.27Q201.60-7.42 205.06-3.84L205.06-3.84L205.06-3.84Q203.46-0.96 201.09 0.16L201.09 0.16L201.09 0.16Q198.72 1.28 195.17 1.28L195.17 1.28L195.17 1.28Q191.62 1.28 189.41-0.67L189.41-0.67L189.41-0.67Q187.20-2.62 187.20-6.66L187.20-6.66L187.20-6.66Q187.20-11.33 189.76-19.01L189.76-19.01L189.76-19.01Q192.32-26.62 196.16-32.45L196.16-32.45L196.16-32.45Q194.30-32.64 192.38-32.64L192.38-32.64L192.38-32.64Q188.42-32.64 187.78-31.17ZM216.77-15.62L216.77-15.62L216.77-15.62Q216.77-27.71 223.04-35.33L223.04-35.33L223.04-35.33Q229.70-43.58 241.28-43.58L241.28-43.58L241.28-43.58Q249.66-43.58 253.89-39.52L253.89-39.52L253.89-39.52Q258.11-35.46 258.11-26.88L258.11-26.88L258.11-26.88Q258.11-13.82 251.46-6.21L251.46-6.21L251.46-6.21Q244.86 1.28 233.79 1.28L233.79 1.28L233.79 1.28Q225.15 1.28 220.96-3.04L220.96-3.04L220.96-3.04Q216.77-7.36 216.77-15.62ZM233.60-28.86L233.60-28.86L233.60-28.86Q230.72-17.34 230.72-8.26L230.72-8.26L230.72-8.26Q230.72-6.08 231.46-4.67L231.46-4.67L231.46-4.67Q232.19-3.26 234.14-3.26L234.14-3.26L234.14-3.26Q236.10-3.26 237.31-4.19L237.31-4.19L237.31-4.19Q238.53-5.12 239.49-7.23L239.49-7.23L239.49-7.23Q241.02-10.69 242.46-18.02L242.46-18.02L242.46-18.02Q243.90-25.34 244.03-28.38L244.03-28.38L244.03-28.38Q244.16-31.42 244.16-33.73L244.16-33.73L244.16-33.73Q244.16-36.03 243.46-37.50L243.46-37.50L243.46-37.50Q242.75-38.98 240.86-38.98L240.86-38.98L240.86-38.98Q238.98-38.98 237.70-37.82L237.70-37.82L237.70-37.82Q235.33-35.65 233.60-28.86ZM274.37 0L260.67 0L268.48-42.05L268.48-42.05Q274.82-42.75 284.06-42.75L284.06-42.75L284.06-42.75Q293.31-42.75 297.60-40.06L297.60-40.06L297.60-40.06Q301.89-37.38 301.89-31.97L301.89-31.97L301.89-31.97Q301.89-26.56 299.10-23.17L299.10-23.17L299.10-23.17Q296.32-19.78 291.52-18.69L291.52-18.69L291.52-18.69Q292.61-13.38 295.10-9.09L295.10-9.09L295.10-9.09Q297.41-5.06 300.10-3.78L300.10-3.78L300.10-3.78Q299.14-1.09 297.18 0.10L297.18 0.10L297.18 0.10Q295.23 1.28 292.45 1.28L292.45 1.28L292.45 1.28Q289.66 1.28 287.49-0.35L287.49-0.35L287.49-0.35Q285.31-1.98 283.58-4.99L283.58-4.99L283.58-4.99Q279.94-11.52 279.55-21.82L279.55-21.82L280.00-21.82L280.00-21.82Q284.74-21.95 287.10-24.42L287.10-24.42L287.10-24.42Q289.47-26.88 289.47-32.06L289.47-32.06L289.47-32.06Q289.47-38.53 284.03-38.78L284.03-38.78L282.62-38.78L282.62-38.78Q282.05-38.78 281.73-38.72L281.73-38.72L274.37 0ZM309.63 0L313.34-18.82L313.34-18.82Q311.49-36.16 304.96-39.87L304.96-39.87L304.96-39.87Q306.30-41.54 308.48-42.46L308.48-42.46L308.48-42.46Q310.66-43.39 313.28-43.39L313.28-43.39L313.28-43.39Q315.90-43.39 317.89-42.46L317.89-42.46L317.89-42.46Q319.87-41.54 321.15-39.55L321.15-39.55L321.15-39.55Q323.58-35.78 323.58-26.75L323.58-26.75L323.58-22.14L323.58-22.14Q327.42-33.41 331.26-38.27L331.26-38.27L331.26-38.27Q335.17-43.26 340.03-43.26L340.03-43.26L340.03-43.26Q341.95-43.26 343.23-42.27L343.23-42.27L343.23-42.27Q344.51-41.28 345.15-39.81L345.15-39.81L345.15-39.81Q340.22-37.63 335.49-31.36L335.49-31.36L335.49-31.36Q330.75-25.09 327.68-16.32L327.68-16.32L323.90 0L309.63 0Z"></path></g></g><style>text {
  font-size: 64px;
  font-family: Arial Black;
  dominant-baseline: central;
  text-anchor: middle;
}</style></svg>